<svg xmlns="http://www.w3.org/2000/svg" width="12.965" height="10.534" fill="#008fd3" fill-rule="evenodd" xmlns:v="https://vecta.io/nano"><path d="M.405 5.672c.107 0 .21.043.286.119s.119.179.119.286v2.836a.81.81 0 0 0 .81.81h9.723a.81.81 0 0 0 .81-.81V6.077c0-.224.181-.405.405-.405s.405.181.405.405v2.836a1.62 1.62 0 0 1-1.621 1.621H1.621A1.62 1.62 0 0 1 0 8.913V6.077c0-.107.043-.21.119-.286s.179-.119.286-.119zm3.646-.405c.076-.076.179-.119.287-.119s.211.043.287.119l1.858 1.858L8.34 5.267c.158-.158.415-.158.573 0s.158.415 0 .573L6.769 7.985c-.076.076-.179.119-.287.119s-.211-.043-.287-.119L4.051 5.84c-.076-.076-.119-.179-.119-.287s.043-.211.119-.287z"/><path d="M6.482 0c.107 0 .21.043.286.119s.119.179.119.286v6.482c0 .224-.181.405-.405.405s-.405-.181-.405-.405V.405c0-.224.181-.405.405-.405z"/></svg>