<svg xmlns="http://www.w3.org/2000/svg" width="554" height="1080" xmlns:v="https://vecta.io/nano"><defs><clipPath id="A"><path transform="translate(1366)" fill="#fff" d="M0 0h554v1080H0z"/></clipPath></defs><g transform="translate(-1366)" clip-path="url(#A)"><g opacity=".368" fill="#008fd3"><path d="M1919.007 852.22a57.85 57.85 0 0 1-32.729-10.023c-19.414-13.249-28.7-37.06-23.38-59.954a11.18 11.18 0 0 0 .209-1.387c.039-.712.188-1.413.444-2.079 7.122-15.547 5.639-27.232-4.667-36.772-10.811-10-23.1-15.072-36.516-15.072a58.5 58.5 0 0 0-10.166.919c-11.1 1.967-17.279 9.359-23.136 19.853-12.847 23.303-40.207 34.489-65.7 26.861-26.112-7.759-43.3-31.387-41.8-57.461 1.309-22.61 12.326-39.324 32.743-49.678 20.1-10.2 25.389-25.083 16.63-46.85-7.447-18.525-20.121-28.727-35.688-28.727-3.688.025-7.356.555-10.9 1.578-6.142 1.753-12.495 2.653-18.882 2.677-27.63 0-49.724-17.339-56.288-44.176-3.79-15.205-.982-31.303 7.731-44.327a57.71 57.71 0 0 1 39.387-25.168c2.153-.34 4.33-.507 6.51-.5 7.793 0 15.72 1.815 24.531 4.008a47.56 47.56 0 0 0 11.4 1.547c9.265 0 16.685-3.752 23.35-11.807a52.38 52.38 0 0 0 12.142-38.336c-.867-11.959-6.952-20.313-19.731-27.089-23.133-12.271-34.589-35.116-30.646-61.109 3.335-22 21.405-40.568 44.965-46.212a54.4 54.4 0 0 1 12.681-1.5c21.061.068 40.308 11.933 49.831 30.718 7.482 14.993 16.756 21.68 30.073 21.68a43.36 43.36 0 0 0 3.932-.185c20.39-1.893 34.362-10.838 41.53-26.587 3.362-7.353.833-18.2-.41-22.528-4.863-17.029-3.072-34.177 5.045-48.283 7.72-13.418 20.677-23.015 36.485-27.024 4.443-1.129 9.008-1.703 13.592-1.707 27.4 0 51 20.453 56.118 48.633 1.61 8.912.177 18.178-1.307 24.383-3.427 14.288-1.551 26.918 5.423 36.524 7.015 9.663 18.555 15.394 33.37 16.574 1.465.116 2.9.175 4.268.175 13.918 0 23.527-6.045 30.239-19.024 10.457-20.212 29.031-31.8 50.958-31.8 3.725.006 7.443.342 11.109 1.006 23.412 4.211 42.5 24.427 46.425 49.161 3.721 23.5-9.4 48.109-31.208 58.509-18.251 8.713-24.193 27.544-15.505 49.145 7.223 17.984 18.51 27.1 33.547 27.1 4.153-.045 8.28-.653 12.269-1.808 5.591-1.571 11.37-2.374 17.178-2.388a56.86 56.86 0 0 1 57.569 57.841 56.6 56.6 0 0 1-17.179 40.825c-10.82 10.493-25.318 16.333-40.39 16.272a61.34 61.34 0 0 1-16.841-2.387c-6.8-1.944-11.955-2.849-16.217-2.849-8.655 0-14.638 3.532-22.075 13.034-12.07 15.408-15.387 39.688-7.1 51.958 2.614 3.857 6.84 7.393 13.3 11.127 23.787 13.753 35.164 37.109 30.433 62.477-4.368 23.434-24.64 42.468-49.3 46.288a50.39 50.39 0 0 1-7.671.587c-20.8 0-41.028-12.928-51.537-32.935-7.016-13.363-15.3-19.322-26.853-19.322-4.766.098-9.493.876-14.039 2.312-27.5 8.078-38.156 25.927-31.664 53.052 3.988 17.036-.041 34.961-10.937 48.652s-27.458 21.641-44.955 21.578zm1.525-380.732c-38.609 0-68.947 29.848-69.068 67.95a69.37 69.37 0 0 0 19.438 48.832c12.474 12.93 29.652 20.26 47.618 20.318h.532c38.69 0 69.211-29.613 69.485-67.417a69.43 69.43 0 0 0-19.821-49.8 67.12 67.12 0 0 0-47.855-19.886z" stroke="rgba(0,0,0,0)" stroke-miterlimit="10"/><path d="M2195.243 816.177l.03-32.47c.276-21.545 12.635-34.928 31.725-34.5 18.687.411 30.157 13.526 30.816 34.459.554 17.482-2.848 37.031 3.89 51.834 6.854 15.066 23.907 25.522 36.61 37.863 10.123 9.826 17.368 20.407 11.891 35.49-8.038 22.128-33.226 29.079-50.575 13.287-13.382-12.187-25.615-25.627-39.046-37.756a26.48 26.48 0 0 0-15.226-6.2c-14.53-.792-29.126-.027-43.693-.2-19.336-.24-31.456-12.065-31.677-30.522-.22-18.9 11.116-30.615 30.682-31.228 10.964-.336 21.948-.057 34.573-.057zm-276.309 115.149l25.54-26.18c14.081-13.554 30.683-13.593 44.007-.5 12.962 12.741 13.086 30.072-.067 44.054-9.988 10.62-20.855 20.437-30.356 31.459a28.72 28.72 0 0 0-6.481 16.4c-.669 16.509.371 33.083.238 49.629-.162 21.238-11.928 33.808-31.008 33.808-18.916-.01-30.978-12.931-31.237-33.761-.2-16.155.565-32.356-.515-48.443a33.4 33.4 0 0 0-7.505-18.228c-8.955-10.429-19.536-19.432-29.161-29.308-13.87-14.222-14.118-31.924-.976-44.962 13.029-12.923 29.861-13.009 44.027.526 7.925 7.575 14.911 16.119 23.494 25.506zm-274.168-667.462l-.009 31.009c-.076 22.616-11.987 36.207-31.477 35.958-19.05-.239-30.76-13.581-31.008-35.357a13 13 0 0 1 0-2.36c6.041-33.839-5.553-60.133-33.52-79.748-4.445-3.125-8.088-7.493-11.767-11.594-12.465-13.889-12.091-30.443.774-43.2 12.081-11.956 29.421-12.7 42.4-.878 12.5 11.395 24.652 23.239 36.189 35.617 6.47 6.948 13.286 9.643 22.711 9.052 13.334-.832 26.764-.488 40.136-.269 18.5.306 30.483 12.206 30.817 30.147.344 18.916-10.963 30.885-30.358 31.553-10.979.386-21.994.07-34.888.07zm276.625-115.943l-24.03 25.208c-15.331 15.2-31.819 15.962-45.709 2.4-13.6-13.277-13.1-30.75 1.425-45.757 9.864-10.19 20.245-19.912 29.6-30.54a24.61 24.61 0 0 0 5.8-14.348c.525-16.526-.287-33.091-.3-49.636-.02-22.109 11.46-35.1 30.789-35.243 19.259-.154 31.217 13.038 31.5 34.745l.02 3.546c.1 17.732-4.523 37.375 1.653 52.648 6.127 15.17 23.142 25.914 35.328 38.646 13.832 14.443 14.3 31.935 1.271 45-13.3 13.334-30.366 13.229-44.857-1.052-7.531-7.429-14.03-15.907-22.49-25.617zm-392.961 390.57c11 10.743 19.118 18.219 26.7 26.2 13.439 14.126 13.343 30.836.153 44.016-12.819 12.8-30.111 12.732-44.065-.42-8.307-7.828-17.158-15.3-24.269-24.154-8.9-11.089-19.672-13.965-33.121-12.981-13.725 1-27.567.974-41.341.63-20.388-.506-32.45-12.492-32.336-31.217.125-18.525 12.8-30.654 32.805-30.961 17.329-.259 34.677.287 51.979-.458a24.27 24.27 0 0 0 14.176-5.966c10.743-9.816 20.484-20.731 30.912-30.911 13.85-13.534 31.035-13.994 44.093-1.538 13.6 12.98 13.926 30.453 0 44.887-7.591 7.866-16.337 14.623-25.686 22.873zm783.149 3.154l-26.621-26.172c-13.486-14.136-13.468-30.8-.344-44.016 12.876-12.961 30.015-13 44.046.211 9.187 8.642 18.667 17.082 26.84 26.621 7.456 8.716 15.974 11.327 26.975 10.648 14.519-.9 29.134-.879 43.7-.7 21.285.267 33.7 11.957 33.675 31.085-.03 18.915-12.952 30.921-33.839 31.16-16.937.192-33.9-.306-50.8.441a24.4 24.4 0 0 0-14.213 5.9c-10.743 9.827-20.435 20.781-30.894 30.942-14.26 13.859-31.944 14.012-44.972.774-12.885-13.086-12.923-30.023.717-44 7.637-7.839 16.353-14.626 25.73-22.894zM1643.83 815.228l33.5.037c23.9.45 37.66 17.512 32.241 39.765-3.345 13.762-14.49 22.28-30.6 22.69-14.557.384-29.172-.362-43.682.556a26.38 26.38 0 0 0-15.121 6.48c-12.4 11.5-23.782 24.087-35.845 35.96-15.189 14.95-32.165 15.38-45.738 1.566-12.809-13.037-12.255-30.433 1.548-45.077 4.865-5.152 9.339-10.935 15-15.025 23.314-16.834 31.955-39.133 27.081-67.235-.795-4.589-.22-9.436-.106-14.157.459-18.457 12.273-30.425 30.253-30.729 18.5-.307 30.559 10.647 31.371 29.258.519 11.66.098 23.38.098 35.911zm656.835-658.173c-13.679-13.055-30.177-12.367-44.858 2.181-11.471 11.354-23.065 22.635-33.837 34.63-5.851 6.51-12.1 8.756-20.629 8.4-13.745-.575-27.557-.354-41.321.1-15.294.506-26.247 9.147-29.574 22.462-5.524 22.139 8.345 39.525 32.059 39.954 10.516.2 21.037.04 31.142.04.821 1.386 1.539 2.034 1.559 2.7l1 33.025c.955 18.686 12.759 29.661 31.246 29.43 17.98-.228 29.947-12.188 30.453-30.578s-3.966-38.836 2.735-54.55c6.747-15.859 24.537-27 37.5-40.2l1.654-1.693c14.118-15.084 14.462-32.939.871-45.901z"/></g></g></svg>