<svg xmlns="http://www.w3.org/2000/svg" width="30.002" height="30.001" xmlns:v="https://vecta.io/nano"><path d="M15 0L8.816.09a11.04 11.04 0 0 0-3.641.7C3.16 1.568 1.567 3.16.787 5.175a11.06 11.06 0 0 0-.7 3.641L0 15l.09 6.184a11.04 11.04 0 0 0 .7 3.641c.779 2.016 2.372 3.609 4.388 4.388a11.06 11.06 0 0 0 3.641.7l6.184.09 6.184-.09a11.04 11.04 0 0 0 3.641-.7c2.016-.779 3.609-2.372 4.388-4.388a11.06 11.06 0 0 0 .7-3.641l.09-6.184-.09-6.184a11.04 11.04 0 0 0-.7-3.641c-.779-2.016-2.372-3.609-4.388-4.388a11.06 11.06 0 0 0-3.641-.7L15 0m0 2.7l6.06.087c.952.012 1.894.186 2.787.516 1.308.504 2.343 1.539 2.847 2.847.33.892.504 1.834.516 2.785l.087 6.062-.087 6.06c-.013.952-.187 1.894-.516 2.787-.504 1.308-1.539 2.343-2.847 2.847-.892.33-1.834.504-2.785.516L15 27.294c-4.007 0-4.481-.015-6.06-.087-.952-.013-1.894-.187-2.787-.516-1.308-.504-2.343-1.539-2.847-2.847a8.27 8.27 0 0 1-.516-2.785L2.7 15l.087-6.06c.012-.952.186-1.894.516-2.787.505-1.309 1.54-2.343 2.85-2.847a8.27 8.27 0 0 1 2.785-.516L15 2.7M15 20a5 5 0 1 1 0-10 5 5 0 1 1 0 10m0-12.7a7.7 7.7 0 0 0 0 15.4 7.7 7.7 0 1 0 0-15.4m9.807-.3a1.8 1.8 0 1 1-3.6 0 1.8 1.8 0 0 1 3.073-1.273A1.8 1.8 0 0 1 24.807 7" fill="#fff" fill-rule="evenodd"/></svg>