<svg xmlns="http://www.w3.org/2000/svg" width="36" height="27.006" fill="#fff" xmlns:v="https://vecta.io/nano"><path d="M18.633 2.25c4.591 0 8.346.077 11.82.232h.1A3.24 3.24 0 0 1 33.5 5.934v.077l.007.077c.162 2.391.239 4.873.239 7.376s-.077 4.985-.239 7.376l-.007.077v.077a3.73 3.73 0 0 1-.942 2.538 2.72 2.72 0 0 1-2.011.942h-.113c-3.72.176-7.65.267-11.7.267h-.745c-4.064 0-7.995-.091-11.686-.26h-.109a2.71 2.71 0 0 1-2-.942A3.76 3.76 0 0 1 3.248 21v-.077l-.007-.077c-.169-2.4-.246-4.88-.232-7.362v-.014c-.007-2.482.07-4.957.232-7.355l.007-.077v-.077A3.24 3.24 0 0 1 6.194 2.5h.1c3.48-.162 7.235-.232 11.827-.232h.514m0-2.264h-1.268c-4.05 0-8.03.056-11.925.232a5.47 5.47 0 0 0-5.2 5.716C.07 8.466-.007 10.969 0 13.479S.063 18.492.239 21a5.49 5.49 0 0 0 5.2 5.737q5.779.275 11.8.267h1.519q6.022 0 11.8-.267a5.49 5.49 0 0 0 5.2-5.737q.253-3.765.239-7.53a107.72 107.72 0 0 0-.239-7.53 5.46 5.46 0 0 0-5.2-5.7C26.662.056 22.69 0 18.633 0zm-4.08 20.373V6.567l10.195 6.9z"/></svg>