<svg xmlns="http://www.w3.org/2000/svg" width="29.768" height="30.001" xmlns:v="https://vecta.io/nano"><path d="M19.089 16.515a8.85 8.85 0 0 1 1.89.853 8.4 8.4 0 0 1 1.735 1.027.82.82 0 0 1 .039.29 4.08 4.08 0 0 1-.33 1.473 2.6 2.6 0 0 1-1.376 1.27c-.612.318-1.288.494-1.977.514a10.47 10.47 0 0 1-3.682-1.2 11.05 11.05 0 0 1-3.295-2.287 25.56 25.56 0 0 1-2.868-3.586c-.827-1.087-1.307-2.399-1.375-3.764v-.155c.038-1.174.556-2.282 1.434-3.063.268-.267.63-.419 1.008-.426a3.06 3.06 0 0 1 .349.029c.122.017.245.027.368.029a.8.8 0 0 1 .513.126 1.4 1.4 0 0 1 .3.533q.155.388.639 1.705c.194.473.356.959.485 1.454a1.97 1.97 0 0 1-.668 1.115q-.668.708-.669.9c.005.104.04.205.1.29a8.74 8.74 0 0 0 1.977 2.656 12.37 12.37 0 0 0 2.926 1.957.86.86 0 0 0 .426.136q.29 0 1.047-.94.757-.94 1.008-.94zm-3.933 10.269c1.623.004 3.229-.326 4.719-.969 2.935-1.216 5.267-3.548 6.483-6.483 1.292-3.014 1.292-6.425 0-9.439-1.218-2.933-3.549-5.263-6.483-6.478-3.014-1.292-6.425-1.292-9.439 0-2.935 1.216-5.267 3.548-6.483 6.483A12.05 12.05 0 0 0 5.31 21.745L3.78 26.26l4.69-1.492c1.977 1.325 4.306 2.027 6.686 2.016zm0-26.784a14.2 14.2 0 0 1 5.669 1.163c3.519 1.465 6.316 4.262 7.781 7.781a14.4 14.4 0 0 1 0 11.337c-1.465 3.519-4.262 6.316-7.781 7.781a14.19 14.19 0 0 1-5.669 1.163 14.39 14.39 0 0 1-7.074-1.822L0 30.001l2.636-7.849a14.53 14.53 0 0 1-.93-13.208c1.465-3.519 4.262-6.316 7.781-7.781C11.277.39 13.206-.006 15.156 0z" fill="#fff"/></svg>